<?xml version="1.0" encoding="utf-8"?>
<!-- Generator: Adobe Illustrator 24.0.2, SVG Export Plug-In . SVG Version: 6.00 Build 0)  -->
<svg version="1.1" id="facebook" xmlns="http://www.w3.org/2000/svg" xmlns:xlink="http://www.w3.org/1999/xlink" x="0px" y="0px"
	 viewBox="0 0 116.4 194.4" style="enable-background:new 0 0 116.4 194.4;" xml:space="preserve">
<style type="text/css">
	.st0{fill:#B2B2B2;}
</style>
<path class="st0" d="M97.3,34.8h19V0H81.8c-2.9-0.1-38-0.8-47.2,34c-0.1,0.4-3,8.6-3,27.9L0,62v36.4l31.7-0.1v96.1H80v-96h32V61.9
	H80V50.4C80,43.3,83,34.8,97.3,34.8z M104,69.9v20.5H72v96H39.7V90.3L8,90.4V70l31.7-0.1l-0.1-4.1c-0.4-20.5,2.5-29,2.6-29.5
	C50.2,6.4,80.2,7.9,81.5,8l26.9,0v18.7h-11C78.7,26.8,72,39,72,50.4v19.5H104z"/>
<path class="st0" d="M72,50.4v19.5h32v20.5H72v96H39.7V90.3L8,90.4V70l31.7-0.1l-0.1-4.1c-0.4-20.5,2.5-29,2.6-29.5
	C50.2,6.4,80.2,7.9,81.5,8l26.9,0v18.7h-11C78.7,26.8,72,39,72,50.4z"/>
</svg>
