<svg id="Capa_1" data-name="Capa 1" xmlns="http://www.w3.org/2000/svg" viewBox="0 0 754.88 118.56"><defs><style>.cls-1{fill:#fff;}.cls-2{fill:#33b1ff;}.cls-3{fill:#5ebb1e;}</style></defs><title>logoV2</title><path class="cls-1" d="M216.94,41.81V69.94q-18.72-11.25-32.78-11.25t-22.5,9.67q-8.44,9.66-8.44,26,0,15.48,8.88,24.74t23.73,9.28q13,0,31.11-10.46v27.95q-20.3,6.76-33.84,6.76-23.28,0-39.55-17.09t-16.26-41.7q0-25,16.57-42.41t40.3-17.36Q199.45,34.08,216.94,41.81Z" transform="translate(-127.29 -34.08)"/><path class="cls-1" d="M231.88,93.32q0-25.57,16.92-42.23t40.12-16.66q25.66,0,42.45,16.74t16.79,42.32q0,25.41-16.61,42.19t-41.84,16.79q-25.21,0-41.52-16.7T231.88,93.32Zm58.19-35.86q-14.51-.27-23.38,10T257.81,94q0,15.39,9.05,25.49a29.36,29.36,0,0,0,22.85,10.11q14.51,0,23.43-10t8.92-26.32q0-16.08-8.75-25.84T290.07,57.46Z" transform="translate(-127.29 -34.08)"/><path class="cls-1" d="M368.38,35.66h39.37q25.23,0,40.61,15.91t15.38,41.92q0,26.12-15.87,41.84t-42.23,15.73H368.38Zm25.05,21.8v71.28h9.84q15.28,0,25.14-8.35t9.84-27.86a41.39,41.39,0,0,0-4.75-20.09,24.29,24.29,0,0,0-13.75-11.86,52.5,52.5,0,0,0-17.18-3.12Z" transform="translate(-127.29 -34.08)"/><path class="cls-1" d="M483.34,35.66h64.95V58.51H508.21V81.8h40.08v22.5H508.21v23.91h40.08v22.85H483.34Z" transform="translate(-127.29 -34.08)"/><path class="cls-2" d="M560.59,35.66h22.14l18.6,78.66,19.39-78.66h15.82l19.11,79,18.94-79h22.15L668.8,151.06H645.41L628.49,80.31l-17,70.75h-23.3Z" transform="translate(-127.29 -34.08)"/><path class="cls-1" d="M776.72,46.12l-15.47,17q-12.22-7.2-17.58-7.2A9.53,9.53,0,0,0,736.55,59a10.36,10.36,0,0,0-3,7.42q0,8.52,15.47,14.77a107.88,107.88,0,0,1,17.14,8.74,31.34,31.34,0,0,1,9.71,10.86,30.1,30.1,0,0,1,3.91,15q0,14.85-12,25.84a40.61,40.61,0,0,1-28.35,11q-17.93,0-35.42-16.87l16.35-19.07Q731.36,128,741,128q4.47,0,8.61-4t4.13-8.38q0-9-19.07-15.92-10.9-4-15.47-7.44a26.6,26.6,0,0,1-7.69-10.11,31.58,31.58,0,0,1-3.12-13.58q0-15.38,10-25t26.19-9.58Q763.71,34.08,776.72,46.12Z" transform="translate(-127.29 -34.08)"/><path class="cls-3" d="M789.71,150.39v-9h92.47v9Z" transform="translate(-127.29 -34.08)"/></svg>