<?xml version="1.0" encoding="utf-8"?>
<!-- Generator: Adobe Illustrator 24.0.2, SVG Export Plug-In . SVG Version: 6.00 Build 0)  -->
<svg version="1.1" id="Capa_1" xmlns="http://www.w3.org/2000/svg" xmlns:xlink="http://www.w3.org/1999/xlink" x="0px" y="0px"
	 viewBox="0 0 64 64" style="enable-background:new 0 0 64 64;" xml:space="preserve">
<style type="text/css">
	.st0{fill:#FFFFFF;}
</style>
<g id="Glyph_copy_2">
	<path class="st0" d="M42.1,21.2c0-4.5-4.5-8.1-10.1-8.1s-10.1,3.6-10.1,8.1s4.5,8.1,10.1,8.1S42.1,25.6,42.1,21.2z"/>
	<path class="st0" d="M32,64l4.1-5.4c4.3-5.7,18.3-25,18.3-35.6c0-13.8-9-23-22.4-23S9.6,9.3,9.6,23c0,11.4,16.4,33.2,18.3,35.6
		L32,64z M17.9,23.2c0-7.8,6.3-14.1,14.1-14.1s14.1,6.3,14.1,14.1S39.8,37.3,32,37.3S17.9,30.9,17.9,23.2z"/>
</g>
</svg>
